<?xml version="1.0" encoding="UTF-8" standalone="no"?>
<svg width="840px" height="600px" viewBox="0 0 840 600" version="1.1" xmlns="http://www.w3.org/2000/svg" xmlns:xlink="http://www.w3.org/1999/xlink">
    <!-- Generator: Sketch 39.1 (31720) - http://www.bohemiancoding.com/sketch -->
    <title>Visa-Electron-Alt</title>
    <desc>Created with Sketch.</desc>
    <defs></defs>
    <g id="Page-1" stroke="none" stroke-width="1" fill="none" fill-rule="evenodd">
        <g id="GoPro-Credit_Card-Logos" transform="translate(-6340.000000, -900.000000)">
            <g id="Visa-Electron-Alt" transform="translate(6340.000000, 900.000000)">
                <rect id="CC-BG" fill="#0066B2" x="0" y="0" width="840" height="600" rx="60"></rect>
                <g id="Visa_Electron-Logo" transform="translate(122.000000, 130.000000)">
                    <path d="M136,210 C211.216512,177.72184 316.762129,148.472217 457,178 L458,142 C310.529951,126.145557 204.707072,173.168676 136,206 L136,210" id="Fill-5" fill="#EFA338"></path>
                    <polyline id="Fill-6" fill="#FFFFFF" points="0 236 71 236 71 257 27 257 27 277 71 277 71 297 26 297 27 317 70 317 70 338 0 338 0 236"></polyline>
                    <polyline id="Fill-7" fill="#FFFFFF" points="89 227 115 227 115 338 89 338 89 227"></polyline>
                    <path d="M184,292 C184,284.123732 180.338399,277 172,277 C163.769141,277 157.616014,284.423901 156,292 L184,292 L184,292 Z M204,330 C195.023583,337.295799 181.601857,341 170,341 C142.377121,341 130,321.743114 130,303 C130,280.112191 147.000854,261 170,261 C199.052182,261 208,281.145729 208,307 L156,307 C155.948671,312.557025 159.677622,322.330164 174,322 C183.091772,322.330164 188.160815,319.667769 195,315 L204,330 L204,330 Z" id="Fill-8" fill="#FFFFFF"></path>
                    <path d="M285,333 C277.904635,337.742287 266.226159,341 258,341 C233.995875,341 217,327.369697 217,303 C217,277.594491 233.851492,261 259,261 C268.148508,261 278.791555,263.815358 285,268 L276,284 C272.434603,282.778719 268.29289,281.447522 264,281 C251.297015,281.447522 242.720699,289.14945 243,301 C242.720699,312.114671 251,320.556612 262,321 C266.816064,320.556612 271.692065,318.332438 276,316 L285,333" id="Fill-9" fill="#FFFFFF"></path>
                    <path d="M296,263 L307,263 L307,238 L332,238 L332,263 L353,263 L352,282 L331,282 C331.140537,292.546491 330.393488,303.546209 330,310 C330.393488,316.47461 332.028694,319.597834 338,320 C341.4,319.597834 344.375742,317.810172 347,316 L353,334 C345.413309,338.175412 336.195564,341 327,341 C306.44644,341 305.408873,327.768816 305,311 C305.408873,301.314742 306.147621,292.102686 306,282 L295,282 L296,263" id="Fill-10" fill="#FFFFFF"></path>
                    <path d="M366,263 L391,263 L391,274 L392,274 C395.472018,267.243467 400.500459,261 411,261 C413.372936,261 416.328899,261.294542 419,262 L416,287 C413.079817,286.716448 410.268349,285.97387 406,286 C397.841743,285.97387 391.182569,293.254458 391,295 L391,338 L365,338 L366,263" id="Fill-11" fill="#FFFFFF"></path>
                    <path d="M466,322 C478.295607,322 482,311.303266 482,301 C482,291.696734 478.295607,281 466,281 C453.704393,281 450,291.696734 450,301 C450,311.303266 453.704393,322 466,322 L466,322 Z M466,261 C493.706991,261 508,278.483334 508,301 C508,323.516666 493.706991,341 466,341 C438.305477,341 424,323.516666 424,301 C424,278.483334 438.305477,261 466,261 L466,261 Z" id="Fill-12" fill="#FFFFFF"></path>
                    <path d="M522,264 L547,264 L547,272 C553.315392,266.01807 562.356918,261 572,261 C587.405173,261 596,269.706496 596,290 C596,305.252874 595.855236,321.628495 596,338 L570,338 C570.062483,323.695001 570.215519,309.23769 570,294 C570.215519,287.848115 568.581757,283.126437 561,283 C556.723543,283.126437 550.796504,286.670783 547,290 L547,338 L521,338 L522,264" id="Fill-13" fill="#FFFFFF"></path>
                    <polyline id="Fill-14" fill="#FFFFFF" points="212 109 245 2 274 2 241 109 212 109"></polyline>
                    <path d="M200,2 L173,47 C166.662384,59.2559402 162.754856,65.2596757 161,73 L160,73 C160.946277,63.2446952 159.610583,51.5627527 159,45 L157,2 L108,2 L107,5 C119.610279,4.88443024 127.089336,11.1724882 129,24 L139,109 L169,109 L230,2 L200,2" id="Fill-15" fill="#FFFFFF"></path>
                    <path d="M422,47 C422.152498,39.3717376 421.882544,28.5507485 422,22 L422,22 C420.19111,27.3627244 412.44257,43.4384356 409,51 L398,75 L424,75 L422,47 L422,47 Z M425,110 L425,94 L388,94 L381,110 L349,110 L406,3 L445,3 L455,110 L425,110 L425,110 Z" id="Fill-16" fill="#FFFFFF"></path>
                    <path d="M304,113 C283.310038,113 269.705632,106.476946 260,101 L274,79 C282.541847,84.3772541 289.389481,90.0181425 305,90 C310.196704,90.0181425 315.078431,88.7011069 318,84 C321.888893,76.8892025 316.916306,73.1244686 306,67 L300,63 C283.169616,51.5134878 275.896587,40.5754655 284,21 C288.877354,9.26066559 302.229825,0 324,0 C339.454023,0 353.710977,6.58517813 362,13 L346,32 C338.004373,25.1562088 331.293032,21.8346284 324,22 C317.482123,21.8346284 312.81929,24.1994942 311,27 C308.197757,33.4104603 312.199781,37.4982407 321,43 L328,47 C348.102361,60.1570518 352.959307,73.6918707 348,86 C339.045147,108.129453 321.822812,113 304,113" id="Fill-17" fill="#FFFFFF"></path>
                </g>
            </g>
        </g>
    </g>
</svg>